<?xml version="1.0" standalone="no"?>
<!DOCTYPE svg PUBLIC "-//W3C//DTD SVG 20010904//EN"
 "http://www.w3.org/TR/2001/REC-SVG-20010904/DTD/svg10.dtd">
<svg version="1.0" xmlns="http://www.w3.org/2000/svg"
 width="1280.000000pt" height="850.000000pt" viewBox="0 0 1280.000000 850.000000"
 preserveAspectRatio="xMidYMid meet">
<g transform="translate(0.000000,850.000000) scale(0.100000,-0.100000)"
fill="#000000" stroke="none">
<path d="M1482 8476 c-296 -73 -478 -281 -588 -675 -36 -130 -44 -124 -44 35
-1 260 -29 360 -129 460 -130 130 -325 159 -493 73 -56 -29 -141 -115 -171
-175 -62 -123 -57 148 -57 -3320 l0 -3157 26 -75 c33 -96 58 -136 128 -199 82
-76 145 -98 276 -98 97 0 110 2 170 31 76 36 129 79 171 141 34 49 69 142 69
184 0 33 9 59 21 59 4 0 57 -32 116 -71 625 -410 1417 -459 2088 -130 736 361
1195 1095 1195 1910 0 241 -32 437 -107 665 -198 596 -659 1082 -1249 1317
-102 40 -264 85 -399 110 -139 26 -445 36 -594 20 -331 -36 -667 -157 -941
-339 -58 -38 -108 -68 -112 -65 -5 2 -8 528 -8 1168 l0 1165 31 97 c54 171
107 261 169 293 54 27 79 25 179 -14 125 -50 165 -59 266 -60 173 0 335 72
546 245 104 86 269 233 269 240 0 21 -308 127 -445 153 -49 9 -109 21 -133 26
-65 15 -148 10 -250 -14z m779 -3727 c294 -29 553 -148 763 -349 203 -194 335
-442 382 -714 22 -133 15 -394 -14 -511 -99 -390 -337 -689 -687 -863 -96 -47
-240 -96 -260 -88 -13 5 -15 76 -15 513 0 531 5 605 43 683 28 57 64 71 146
57 153 -24 274 16 391 132 58 58 210 248 210 263 0 8 -113 26 -210 34 -90 7
-222 -10 -297 -38 -102 -38 -199 -138 -239 -245 -9 -27 -23 -55 -31 -63 -11
-12 -13 33 -13 275 0 160 -5 308 -10 329 -34 151 -209 178 -271 42 -17 -38
-19 -74 -19 -496 0 -250 -4 -461 -9 -468 -6 -10 -22 15 -54 81 -144 296 -420
398 -906 336 -49 -6 -94 -15 -101 -19 -21 -13 188 -298 300 -410 168 -169 315
-218 537 -179 77 13 102 8 148 -32 25 -22 41 -50 57 -97 20 -62 22 -92 26
-380 2 -172 1 -324 -2 -337 -6 -22 -12 -25 -54 -25 -43 0 -182 21 -242 36
-415 103 -745 395 -900 796 -72 185 -99 460 -66 663 19 113 70 273 117 367
196 394 584 661 1024 707 116 12 142 12 256 0z"/>
<path d="M3942 6558 c-50 -4 -108 -12 -127 -16 l-36 -7 111 -164 c133 -197
187 -266 271 -347 168 -160 319 -211 549 -184 125 15 151 9 200 -46 29 -33 60
-116 60 -160 0 -19 -8 -25 -42 -35 -121 -32 -226 -120 -281 -237 l-32 -67 -3
-1795 c-2 -1257 1 -1811 8 -1847 50 -239 295 -385 528 -314 127 38 220 126
274 260 l23 56 3 1760 c1 1057 -1 1786 -7 1827 -11 77 -46 161 -93 220 -41 52
-134 113 -199 129 -69 18 -74 27 -54 96 22 78 55 126 101 148 35 17 47 17 146
5 291 -34 478 59 694 345 64 85 221 317 230 339 12 31 -341 56 -519 37 -127
-14 -258 -50 -342 -94 -85 -44 -211 -173 -257 -262 -46 -90 -75 -177 -94 -290
-9 -49 -19 -94 -24 -98 -8 -9 -12 3 -30 111 -84 486 -427 690 -1058 630z"/>
<path d="M7666 5579 c-215 -25 -479 -104 -681 -204 -1023 -507 -1465 -1705
-1015 -2750 104 -243 248 -453 445 -651 391 -392 866 -603 1428 -631 204 -10
499 29 694 92 122 40 672 126 893 140 165 11 305 -18 368 -78 53 -49 64 -91
73 -262 15 -310 90 -479 298 -677 155 -148 330 -251 723 -427 136 -61 250
-111 254 -111 4 0 4 71 1 158 -25 594 -161 994 -422 1240 -96 90 -185 146
-319 198 -53 21 -96 41 -96 45 0 17 157 21 465 13 181 -5 470 -9 640 -9 273 1
324 3 430 22 165 30 283 65 394 119 268 128 424 324 501 627 36 145 65 404 56
517 -12 165 -29 310 -36 310 -10 0 -384 -207 -487 -269 -453 -276 -628 -559
-583 -944 18 -149 -5 -209 -99 -261 -119 -64 -257 -72 -836 -45 -412 19 -497
20 -690 10 -284 -15 -429 -36 -645 -97 -95 -26 -405 -89 -492 -99 -36 -5 -58
-4 -58 2 0 6 27 24 59 42 171 91 342 220 496 375 326 327 533 739 600 1196 22
150 23 444 1 590 -98 645 -452 1181 -1006 1525 -241 149 -532 252 -823 290
-125 16 -409 18 -531 4z m375 -830 c458 -47 837 -308 1034 -713 95 -194 129
-349 129 -576 -1 -354 -123 -649 -374 -901 -186 -187 -394 -299 -660 -356
-118 -25 -381 -25 -500 0 -526 112 -913 502 -1017 1025 -23 118 -23 375 1 487
121 565 569 976 1126 1034 122 12 146 12 261 0z"/>
</g>
</svg>
