<?xml version="1.0" standalone="no"?>
<!DOCTYPE svg PUBLIC "-//W3C//DTD SVG 20010904//EN"
 "http://www.w3.org/TR/2001/REC-SVG-20010904/DTD/svg10.dtd">
<svg version="1.0" xmlns="http://www.w3.org/2000/svg"
 width="1280.000000pt" height="1280.000000pt" viewBox="0 0 1280.000000 1280.000000"
 preserveAspectRatio="xMidYMid meet">
<g transform="translate(0.000000,1280.000000) scale(0.100000,-0.100000)"
fill="#000000" stroke="none">
<path d="M7755 12790 c-170 -4 -865 -11 -1544 -15 -679 -4 -1246 -11 -1259
-14 -20 -6 -12 -11 50 -35 446 -172 831 -496 1165 -981 140 -203 238 -376 812
-1434 554 -1019 572 -1054 555 -1071 -11 -10 -179 -120 -374 -245 -195 -125
-361 -233 -368 -240 -11 -10 52 -14 330 -19 626 -11 2523 -24 2531 -17 14 13
1527 2515 1523 2518 -2 2 -198 -97 -435 -221 -237 -124 -437 -226 -444 -226
-11 0 -436 769 -653 1182 -88 166 -154 258 -270 373 -222 221 -501 372 -797
431 -99 20 -367 25 -822 14z"/>
<path d="M4228 12644 c-181 -33 -375 -132 -540 -276 -25 -22 -1493 -2277
-1486 -2283 22 -21 2744 -1623 2748 -1618 26 30 1450 2365 1450 2377 0 43
-194 389 -345 616 -568 850 -1245 1290 -1827 1184z"/>
<path d="M10165 7794 c-785 -479 -1350 -830 -1349 -838 2 -17 1301 -2426 1318
-2444 18 -19 483 -17 695 3 461 44 840 144 1176 310 196 98 324 185 445 305
188 185 283 367 330 635 23 130 23 173 -5 345 l-17 105 -610 1202 c-336 662
-616 1203 -622 1203 -6 -1 -618 -372 -1361 -826z"/>
<path d="M1590 8588 c-591 -4 -1167 -11 -1279 -15 l-204 -8 403 -315 c222
-173 407 -322 413 -331 7 -11 -92 -210 -413 -824 -232 -444 -432 -836 -445
-869 -28 -75 -65 -246 -65 -301 0 -59 44 -259 74 -340 78 -205 239 -427 441
-607 332 -296 668 -424 1250 -478 168 -16 660 -31 747 -24 l77 7 562 918 c309
506 568 919 574 919 7 0 191 -97 410 -215 219 -119 401 -214 405 -213 4 2
-109 219 -252 483 -143 264 -471 873 -730 1353 l-471 872 -211 -2 c-116 -1
-695 -5 -1286 -10z"/>
<path d="M7447 3915 l-708 -1277 274 -501 c150 -276 469 -859 708 -1296 l434
-794 7 44 c3 24 11 220 17 434 6 215 14 423 17 463 l6 72 743 0 c690 0 751 1
857 19 146 26 256 60 394 126 254 120 461 292 589 490 29 44 269 487 535 985
266 498 640 1198 832 1557 191 359 348 654 348 658 0 3 -44 -31 -97 -75 -408
-338 -894 -511 -1572 -560 -78 -6 -662 -10 -1373 -10 l-1238 0 -4 23 c-3 12
-15 216 -26 452 -12 237 -25 438 -28 448 -6 14 -196 -321 -715 -1258z"/>
<path d="M265 4900 c10 -19 179 -332 375 -695 197 -363 592 -1094 880 -1625
574 -1062 557 -1034 723 -1160 250 -191 526 -287 992 -347 101 -13 313 -17
1318 -20 l1197 -4 0 1599 0 1599 -567 7 c-313 3 -1011 9 -1553 12 -2188 13
-1980 8 -2203 49 -205 38 -369 92 -564 185 -208 100 -352 197 -532 359 -74 67
-82 72 -66 41z"/>
</g>
</svg>
